<?xml version="1.0" encoding="UTF-8" standalone="no"?>
<!-- Created with Inkscape (http://www.inkscape.org/) -->

<svg
   version="1.1"
   id="svg2"
   xml:space="preserve"
   width="721.33331"
   height="489.33334"
   viewBox="0 0 721.33331 489.33334"
   sodipodi:docname="fig-constellation-segments.svg"
   inkscape:version="1.1.2 (0a00cf5339, 2022-02-04)"
   xmlns:inkscape="http://www.inkscape.org/namespaces/inkscape"
   xmlns:sodipodi="http://sodipodi.sourceforge.net/DTD/sodipodi-0.dtd"
   xmlns="http://www.w3.org/2000/svg"
   xmlns:svg="http://www.w3.org/2000/svg"><defs
     id="defs6" /><sodipodi:namedview
     id="namedview4"
     pagecolor="#505050"
     bordercolor="#ffffff"
     borderopacity="1"
     inkscape:pageshadow="0"
     inkscape:pageopacity="0"
     inkscape:pagecheckerboard="1"
     showgrid="false"
     showguides="true"
     inkscape:guide-bbox="true"
     inkscape:snap-center="true"
     inkscape:zoom="0.90509668"
     inkscape:cx="332.00873"
     inkscape:cy="251.35436"
     inkscape:window-width="1850"
     inkscape:window-height="1136"
     inkscape:window-x="0"
     inkscape:window-y="0"
     inkscape:window-maximized="1"
     inkscape:current-layer="g10"><sodipodi:guide
       position="440.33332,36.844279"
       orientation="0,-1"
       id="guide37712" /><sodipodi:guide
       position="351.87466,381.708"
       orientation="1,0"
       id="guide83835" /></sodipodi:namedview><g
     id="g8"
     inkscape:groupmode="layer"
     inkscape:label="ink_ext_XXXXXX"
     transform="matrix(1.3333333,0,0,-1.3333333,0,489.33333)"><g
       id="g10"
       transform="scale(0.1)"><path
         d="m 978.75,1757.73 491.68,-491.68 35.55,35.55 -491.64,491.68 -35.59,-35.55"
         style="fill:none;stroke:#000000;stroke-width:17.5839;stroke-linecap:butt;stroke-linejoin:miter;stroke-miterlimit:4;stroke-dasharray:none;stroke-opacity:1"
         id="path12" /><path
         d="m 1008.05,1728.44 c -65.82,-95 -61.8,-287.85 47.93,-394.22 8.63,84.22 140.19,81.25 140.19,-8.91 v -60.82 c 65.55,-11.4 146.41,-3.79 244.3,31.56 z m 47.93,-394.22 c -0.28,-2.89 -0.43,-5.82 -0.43,-8.91 v -159.06 h 140.62 v 98.24"
         style="fill:none;stroke:#000000;stroke-width:17.5839;stroke-linecap:butt;stroke-linejoin:miter;stroke-miterlimit:4;stroke-dasharray:none;stroke-opacity:1"
         id="path14" /><path
         d="m 1330.9,1476.68 v 169.34 h -169.3"
         style="fill:none;stroke:#000000;stroke-width:17.5839;stroke-linecap:butt;stroke-linejoin:miter;stroke-miterlimit:4;stroke-dasharray:none;stroke-opacity:1"
         id="path16" /><path
         d="m 1330.9,1646.02 -84.65,-84.69"
         style="fill:none;stroke:#000000;stroke-width:17.5839;stroke-linecap:butt;stroke-linejoin:miter;stroke-miterlimit:4;stroke-dasharray:none;stroke-opacity:1"
         id="path18" /><path
         d="m 1354.53,1646.02 c 0,-13.05 -10.58,-23.6 -23.63,-23.6 -13.01,0 -23.6,10.55 -23.6,23.6 0,13 10.59,23.59 23.6,23.59 13.05,0 23.63,-10.59 23.63,-23.59 z"
         style="fill:none;stroke:#000000;stroke-width:17.5839;stroke-linecap:butt;stroke-linejoin:miter;stroke-miterlimit:4;stroke-dasharray:none;stroke-opacity:1"
         id="path20" /><path
         d="m 1149.45,1325.35 c 0,-13.05 -10.58,-23.63 -23.59,-23.63 -13.05,0 -23.59,10.58 -23.59,23.63 0,13.01 10.54,23.6 23.59,23.6 13.01,0 23.59,-10.59 23.59,-23.6 z"
         style="fill:none;stroke:#000000;stroke-width:17.5839;stroke-linecap:butt;stroke-linejoin:miter;stroke-miterlimit:4;stroke-dasharray:none;stroke-opacity:1"
         id="path22" /><path
         d="m 1125.86,1166.25 h 70.31"
         style="fill:none;stroke:#000000;stroke-width:17.5839;stroke-linecap:butt;stroke-linejoin:miter;stroke-miterlimit:4;stroke-dasharray:none;stroke-opacity:1"
         id="path24" /><path
         d="m 1055.55,1166.25 h 70.31"
         style="fill:none;stroke:#000000;stroke-width:17.5839;stroke-linecap:butt;stroke-linejoin:miter;stroke-miterlimit:4;stroke-dasharray:none;stroke-opacity:1"
         id="path26" /><path
         d="M 1196.17,1214.22 H 1055.55"
         style="fill:none;stroke:#000000;stroke-width:17.5839;stroke-linecap:butt;stroke-linejoin:miter;stroke-miterlimit:4;stroke-dasharray:none;stroke-opacity:1"
         id="path28" /><path
         d="m 1196.17,1166.25 h 164.69 c 25.62,-2.07 35.74,-15.27 35.74,-35.74 v -42.27 h -270.74"
         style="fill:none;stroke:#000000;stroke-width:17.5839;stroke-linecap:butt;stroke-linejoin:miter;stroke-miterlimit:4;stroke-dasharray:none;stroke-opacity:1"
         id="path30" /><path
         d="M 1055.55,1166.25 H 890.82 c -25.59,-2.07 -35.742,-15.27 -35.742,-35.74 v -42.27 h 270.782"
         style="fill:none;stroke:#000000;stroke-width:17.5839;stroke-linecap:butt;stroke-linejoin:miter;stroke-miterlimit:4;stroke-dasharray:none;stroke-opacity:1"
         id="path32" /><path
         d="m 4141.98,1533.83 19.15,23.82 c -80.31,64.53 -89.37,63.29 -188.43,199.38"
         style="fill:none;stroke:#000000;stroke-width:17.5839;stroke-linecap:butt;stroke-linejoin:round;stroke-miterlimit:4;stroke-dasharray:none;stroke-opacity:1"
         id="path34" /><path
         d="m 4141.98,1533.83 c 120.52,-99.85 257.62,-188.24 399.11,-282.42 l 24.03,29.88"
         style="fill:none;stroke:#000000;stroke-width:17.5839;stroke-linecap:round;stroke-linejoin:bevel;stroke-miterlimit:4;stroke-dasharray:none;stroke-opacity:1"
         id="path36" /><path
         d="m 4487.73,1286.83 -185.47,-154.21 -67.61,54.29 -11.37,282.89"
         style="fill:none;stroke:#000000;stroke-width:17.5839;stroke-linecap:butt;stroke-linejoin:miter;stroke-miterlimit:4;stroke-dasharray:none;stroke-opacity:1"
         id="path38" /><path
         d="m 4283.68,1147.54 18.58,-14.92"
         style="fill:none;stroke:#000000;stroke-width:17.5839;stroke-linecap:butt;stroke-linejoin:miter;stroke-miterlimit:4;stroke-dasharray:none;stroke-opacity:1"
         id="path40" /><path
         d="m 4283.68,1147.54 92.72,77.15 18.6,-14.97"
         style="fill:none;stroke:#000000;stroke-width:17.5839;stroke-linecap:butt;stroke-linejoin:miter;stroke-miterlimit:4;stroke-dasharray:none;stroke-opacity:1"
         id="path42" /><path
         d="m 4541.09,1251.41 42.15,-18.55 16.53,20.58"
         style="fill:none;stroke:#000000;stroke-width:17.5839;stroke-linecap:butt;stroke-linejoin:miter;stroke-miterlimit:4;stroke-dasharray:none;stroke-opacity:1"
         id="path44" /><path
         d="m 4227.19,1639.92 -19.14,-23.83 c -80.36,64.5 -81.06,73.64 -235.35,140.94"
         style="fill:none;stroke:#000000;stroke-width:17.5839;stroke-linecap:round;stroke-linejoin:round;stroke-miterlimit:4;stroke-dasharray:none;stroke-opacity:1"
         id="path46" /><path
         d="m 4227.19,1639.92 c 123.47,-96.12 239.41,-210.93 361.92,-328.74 l -23.99,-29.89"
         style="fill:none;stroke:#000000;stroke-width:17.5839;stroke-linecap:butt;stroke-linejoin:round;stroke-miterlimit:4;stroke-dasharray:none;stroke-opacity:1"
         id="path48" /><path
         d="m 4542.97,1355.63 110.59,214.37 -67.62,54.34 -278.67,-49.97"
         style="fill:none;stroke:#000000;stroke-width:17.5839;stroke-linecap:butt;stroke-linejoin:miter;stroke-miterlimit:4;stroke-dasharray:none;stroke-opacity:1"
         id="path50" /><path
         d="m 4634.96,1584.96 18.6,-14.96"
         style="fill:none;stroke:#000000;stroke-width:17.5839;stroke-linecap:butt;stroke-linejoin:miter;stroke-miterlimit:4;stroke-dasharray:none;stroke-opacity:1"
         id="path52" /><path
         d="m 4634.96,1584.96 -55.32,-107.18 18.65,-14.97"
         style="fill:none;stroke:#000000;stroke-width:17.5839;stroke-linecap:butt;stroke-linejoin:miter;stroke-miterlimit:4;stroke-dasharray:none;stroke-opacity:1"
         id="path54" /><path
         d="m 4589.11,1311.18 27.22,-37.16 -16.56,-20.58"
         style="fill:none;stroke:#000000;stroke-width:17.5839;stroke-linecap:butt;stroke-linejoin:miter;stroke-miterlimit:4;stroke-dasharray:none;stroke-opacity:1"
         id="path56" /><path
         d="m 4147.85,1629.22 c 18.99,-15.24 31.56,-31.1 28.09,-35.39 -3.44,-4.3 -21.64,4.53 -40.59,19.76 -18.98,15.24 -31.56,31.1 -28.08,35.39 3.43,4.3 21.64,-4.53 40.58,-19.76 z"
         style="fill:#000000;fill-opacity:1;fill-rule:nonzero;stroke:none"
         id="path58" /><path
         d="m 4147.86,1629.21 c 18.97,-15.22 31.55,-31.08 28.08,-35.39 -3.44,-4.29 -21.64,4.54 -40.6,19.78 -18.97,15.22 -31.55,31.08 -28.08,35.38 3.44,4.3 21.65,-4.52 40.6,-19.77 z"
         style="fill:none;stroke:#000000;stroke-width:17.5839;stroke-linecap:round;stroke-linejoin:round;stroke-miterlimit:4;stroke-dasharray:none;stroke-opacity:1"
         id="path60" /><path
         d="m 4547.9,1295.12 -82.98,66.64"
         style="fill:none;stroke:#000000;stroke-width:17.5839;stroke-linecap:round;stroke-linejoin:round;stroke-miterlimit:4;stroke-dasharray:none;stroke-opacity:1"
         id="path62" /><path
         d="m 3014.77,276.332 h 994.64"
         style="fill:none;stroke:#000000;stroke-width:17.5838;stroke-linecap:butt;stroke-linejoin:miter;stroke-miterlimit:4;stroke-dasharray:none;stroke-opacity:1"
         id="path64" /><path
         d="M 3198.67,587.23 V 455.469 H 3302.5 V 276.332"
         style="fill:none;stroke:#000000;stroke-width:17.5838;stroke-linecap:butt;stroke-linejoin:miter;stroke-miterlimit:4;stroke-dasharray:none;stroke-opacity:1"
         id="path66" /><path
         d="m 3198.67,587.23 c 0,53.161 39.77,111.129 103.83,111.129"
         style="fill:none;stroke:#000000;stroke-width:17.5838;stroke-linecap:butt;stroke-linejoin:miter;stroke-miterlimit:4;stroke-dasharray:none;stroke-opacity:1"
         id="path68" /><path
         d="m 3406.33,587.23 c 0,53.161 -39.77,111.129 -103.83,111.129"
         style="fill:none;stroke:#000000;stroke-width:17.5838;stroke-linecap:butt;stroke-linejoin:miter;stroke-miterlimit:4;stroke-dasharray:none;stroke-opacity:1"
         id="path70" /><path
         d="m 3302.5,455.469 h 103.83"
         style="fill:none;stroke:#000000;stroke-width:17.5838;stroke-linecap:butt;stroke-linejoin:miter;stroke-miterlimit:4;stroke-dasharray:none;stroke-opacity:1"
         id="path72" /><path
         d="M 3406.33,587.23 V 455.469"
         style="fill:none;stroke:#000000;stroke-width:17.5838;stroke-linecap:square;stroke-linejoin:miter;stroke-miterlimit:4;stroke-dasharray:none;stroke-opacity:1"
         id="path74" /><path
         d="M 3597.5,587.23 V 455.469 h 103.83 V 276.332"
         style="fill:none;stroke:#000000;stroke-width:17.5838;stroke-linecap:butt;stroke-linejoin:miter;stroke-miterlimit:4;stroke-dasharray:none;stroke-opacity:1"
         id="path76" /><path
         d="m 3597.5,587.23 c 0,53.161 39.77,111.129 103.83,111.129"
         style="fill:none;stroke:#000000;stroke-width:17.5838;stroke-linecap:butt;stroke-linejoin:miter;stroke-miterlimit:4;stroke-dasharray:none;stroke-opacity:1"
         id="path78" /><path
         d="m 3805.16,587.23 c 0,53.161 -39.77,111.129 -103.83,111.129"
         style="fill:none;stroke:#000000;stroke-width:17.5838;stroke-linecap:butt;stroke-linejoin:miter;stroke-miterlimit:4;stroke-dasharray:none;stroke-opacity:1"
         id="path80" /><path
         d="m 3701.33,455.469 h 103.83"
         style="fill:none;stroke:#000000;stroke-width:17.5838;stroke-linecap:butt;stroke-linejoin:miter;stroke-miterlimit:4;stroke-dasharray:none;stroke-opacity:1"
         id="path82" /><path
         d="M 3805.16,587.23 V 455.469"
         style="fill:none;stroke:#000000;stroke-width:17.5838;stroke-linecap:square;stroke-linejoin:miter;stroke-miterlimit:4;stroke-dasharray:none;stroke-opacity:1"
         id="path84" /><path
         d="M 2839.57,2551.02 3482.97,750.23"
         style="fill:none;stroke:#4d4d4d;stroke-width:17.5839;stroke-linecap:butt;stroke-linejoin:miter;stroke-miterlimit:4;stroke-dasharray:none;stroke-opacity:1"
         id="path86" /><path
         d="m 2863.24,2484.8 44.92,-21.28 -74.53,104.06 8.32,-127.74 z"
         style="fill:#4d4d4d;fill-opacity:1;fill-rule:evenodd;stroke:none"
         id="path88" /><path
         d="m 2863.24,2484.8 44.93,-21.28 -74.54,104.05 8.33,-127.73 z"
         style="fill:none;stroke:#4d4d4d;stroke-width:9.37806;stroke-linecap:butt;stroke-linejoin:miter;stroke-miterlimit:4;stroke-dasharray:none;stroke-opacity:1"
         id="path90" /><path
         d="m 3459.3,816.48 -44.96,21.29 74.53,-104.098 -8.28,127.738 z"
         style="fill:#4d4d4d;fill-opacity:1;fill-rule:evenodd;stroke:none"
         id="path92" /><path
         d="m 3459.3,816.48 -44.97,21.293 74.53,-104.097 -8.28,127.734 z"
         style="fill:none;stroke:#4d4d4d;stroke-width:9.37806;stroke-linecap:butt;stroke-linejoin:miter;stroke-miterlimit:4;stroke-dasharray:none;stroke-opacity:1"
         id="path94" /><path
         d="M 2946.91,2620.27 3903.75,1837.7"
         style="fill:none;stroke:#999999;stroke-width:17.5839;stroke-linecap:butt;stroke-linejoin:miter;stroke-miterlimit:4;stroke-dasharray:none;stroke-opacity:1"
         id="path96" /><path
         d="m 3001.37,2575.74 49.49,4.96 -117.54,50.71 73.01,-105.16 z"
         style="fill:#999999;fill-opacity:1;fill-rule:evenodd;stroke:none"
         id="path98" /><path
         d="m 3001.36,2575.74 49.5,4.96 -117.54,50.71 73,-105.16 z"
         style="fill:none;stroke:#999999;stroke-width:9.37806;stroke-linecap:butt;stroke-linejoin:miter;stroke-miterlimit:4;stroke-dasharray:none;stroke-opacity:1"
         id="path100" /><path
         d="m 3849.3,1882.23 -49.5,-4.96 117.54,-50.71 -73,105.12 z"
         style="fill:#999999;fill-opacity:1;fill-rule:evenodd;stroke:none"
         id="path102" /><path
         d="m 3849.3,1882.22 -49.5,-4.95 117.55,-50.71 -73.01,105.12 z"
         style="fill:none;stroke:#999999;stroke-width:9.37806;stroke-linecap:butt;stroke-linejoin:miter;stroke-miterlimit:4;stroke-dasharray:none;stroke-opacity:1"
         id="path104" /><path
         d="M 2477.54,2532.07 1415.86,1669.53"
         style="fill:none;stroke:#999999;stroke-width:17.5839;stroke-linecap:butt;stroke-linejoin:miter;stroke-miterlimit:4;stroke-dasharray:none;stroke-opacity:1"
         id="path106" /><path
         d="m 2422.93,2487.73 -5.12,-49.49 73.36,104.92 -117.69,-50.31 z"
         style="fill:#999999;fill-opacity:1;fill-rule:evenodd;stroke:none"
         id="path108" /><path
         d="m 2422.93,2487.74 -5.12,-49.49 73.36,104.91 -117.69,-50.31 z"
         style="fill:none;stroke:#999999;stroke-width:9.37806;stroke-linecap:butt;stroke-linejoin:miter;stroke-miterlimit:4;stroke-dasharray:none;stroke-opacity:1"
         id="path110" /><path
         d="m 1470.47,1713.87 5.12,49.49 -73.36,-104.92 117.69,50.31 z"
         style="fill:#999999;fill-opacity:1;fill-rule:evenodd;stroke:none"
         id="path112" /><path
         d="m 1470.46,1713.87 5.13,49.5 -73.36,-104.93 117.7,50.31 z"
         style="fill:none;stroke:#999999;stroke-width:9.37806;stroke-linecap:butt;stroke-linejoin:miter;stroke-miterlimit:4;stroke-dasharray:none;stroke-opacity:1"
         id="path114" /><path
         d="M 2375.9,2568.4 1314.22,1705.86"
         style="fill:#4d4d4d;fill-opacity:1;fill-rule:nonzero;stroke:none"
         id="path116" /><path
         d="M 2375.9,2568.4 1314.22,1705.86"
         style="fill:none;stroke:#4d4d4d;stroke-width:17.5839;stroke-linecap:butt;stroke-linejoin:miter;stroke-miterlimit:4;stroke-dasharray:none;stroke-opacity:1"
         id="path118" /><path
         d="m 2321.29,2524.02 -5.12,-49.45 73.36,104.92 -117.69,-50.35 z"
         style="fill:#4d4d4d;fill-opacity:1;fill-rule:evenodd;stroke:none"
         id="path120" /><path
         d="m 2321.29,2524.03 -5.12,-49.47 73.36,104.92 -117.69,-50.35 z"
         style="fill:none;stroke:#4d4d4d;stroke-width:9.37806;stroke-linecap:butt;stroke-linejoin:miter;stroke-miterlimit:4;stroke-dasharray:none;stroke-opacity:1"
         id="path122" /><path
         d="m 1368.83,1750.2 5.12,49.49 -73.36,-104.92 117.69,50.31 z"
         style="fill:#4d4d4d;fill-opacity:1;fill-rule:evenodd;stroke:none"
         id="path124" /><path
         d="m 1368.83,1750.19 5.12,49.5 -73.36,-104.92 117.69,50.31 z"
         style="fill:none;stroke:#4d4d4d;stroke-width:9.37806;stroke-linecap:butt;stroke-linejoin:miter;stroke-miterlimit:4;stroke-dasharray:none;stroke-opacity:1"
         id="path126" /><path
         d="m 1664.65,603.789 h -295.7 c -248.05,0 -243.09,203.832 -243.09,484.451"
         style="fill:none;stroke:#999999;stroke-width:17.5839;stroke-linecap:butt;stroke-linejoin:miter;stroke-miterlimit:4;stroke-dasharray:35.1677, 35.1677;stroke-dashoffset:0;stroke-opacity:1"
         id="path128" /><path
         d="m 2209.8,522.539 c -2.96,-1.449 -6.05,-2.848 -9.18,-4.258 -4.92,-2.152 -10.03,-4.179 -15.31,-6.211 -5.27,-1.988 -10.74,-3.91 -16.36,-5.781 -5.59,-1.879 -11.37,-3.668 -17.31,-5.391 -5.9,-1.718 -11.99,-3.359 -18.2,-4.957 -6.21,-1.562 -12.54,-3.05 -19.03,-4.461 -6.44,-1.398 -13.04,-2.769 -19.76,-4.019 -6.68,-1.25 -13.48,-2.422 -20.39,-3.512 -6.88,-1.058 -13.87,-2.07 -20.94,-2.969 -7.07,-0.898 -14.22,-1.718 -21.44,-2.46 -7.23,-0.75 -14.5,-1.372 -21.8,-1.918 -7.35,-0.551 -14.73,-1.012 -22.11,-1.403 -7.42,-0.359 -14.85,-0.629 -22.31,-0.82 -7.42,-0.199 -14.92,-0.277 -22.38,-0.277 -7.46,0 -14.92,0.078 -22.38,0.277 -7.46,0.191 -14.88,0.461 -22.31,0.82 -7.38,0.391 -14.76,0.852 -22.07,1.403 -7.34,0.546 -14.61,1.168 -21.83,1.918 -7.19,0.742 -14.34,1.562 -21.41,2.46 -7.07,0.899 -14.06,1.911 -20.98,2.969 -6.87,1.09 -13.71,2.262 -20.39,3.512 -6.71,1.25 -13.28,2.578 -19.76,4.019 -6.45,1.411 -12.81,2.899 -19.03,4.461 -6.21,1.598 -12.26,3.239 -18.2,4.957 -5.9,1.723 -11.68,3.512 -17.3,5.391 -5.63,1.871 -11.06,3.793 -16.33,5.781 -5.27,2.032 -10.39,4.059 -15.31,6.211 -3.17,1.41 -6.21,2.809 -9.18,4.258 35.74,-117.269 143.9,-197.379 266.48,-197.379 122.58,0 230.78,80.11 266.52,197.379 z"
         style="fill:none;stroke:#000000;stroke-width:17.5839;stroke-linecap:butt;stroke-linejoin:miter;stroke-miterlimit:4;stroke-dasharray:none;stroke-opacity:1"
         id="path154" /><path
         d="m 2209.8,685.16 c -0.54,0.27 -1.09,0.539 -1.64,0.781 -1.6,0.739 -3.2,1.481 -4.84,2.219 -1.64,0.711 -3.32,1.41 -5,2.149 -1.68,0.711 -3.4,1.41 -5.12,2.113 -1.72,0.699 -3.47,1.367 -5.23,2.066 -1.76,0.672 -3.56,1.371 -5.35,2.032 -1.8,0.671 -3.64,1.332 -5.47,2 -1.84,0.66 -3.71,1.281 -5.59,1.91 -1.87,0.66 -3.79,1.289 -5.7,1.91 -1.91,0.629 -3.87,1.211 -5.82,1.84 -1.95,0.59 -3.91,1.211 -5.9,1.8 -1.99,0.579 -3.98,1.168 -6.02,1.719 -2.03,0.582 -4.06,1.172 -6.13,1.711 -2.03,0.551 -4.1,1.102 -6.21,1.641 -2.07,0.551 -4.18,1.058 -6.29,1.609 -2.11,0.5 -4.26,1.012 -6.4,1.52 -2.15,0.511 -4.3,0.98 -6.49,1.441 -2.19,0.508 -4.37,0.981 -6.56,1.449 -2.23,0.469 -4.42,0.942 -6.64,1.371 -2.27,0.469 -4.49,0.899 -6.76,1.329 -2.26,0.429 -4.53,0.82 -6.8,1.25 -2.26,0.39 -4.57,0.82 -6.87,1.21 -2.31,0.391 -4.61,0.739 -6.95,1.129 -2.31,0.352 -4.65,0.743 -7,1.09 -2.38,0.352 -4.72,0.672 -7.11,1.02 -2.34,0.312 -4.72,0.66 -7.11,0.98 -2.38,0.313 -4.76,0.582 -7.18,0.891 -2.42,0.281 -4.81,0.551 -7.23,0.82 -2.42,0.281 -4.84,0.551 -7.3,0.82 -2.43,0.239 -4.89,0.469 -7.31,0.711 -2.46,0.231 -4.92,0.43 -7.38,0.661 -2.46,0.199 -4.92,0.386 -7.42,0.589 -2.46,0.188 -4.93,0.391 -7.43,0.539 -2.5,0.161 -4.96,0.321 -7.46,0.469 -2.5,0.16 -5,0.281 -7.5,0.43 -2.5,0.121 -5,0.242 -7.5,0.351 -2.54,0.079 -5.04,0.2 -7.54,0.282 -2.53,0.078 -5.03,0.148 -7.57,0.187 -2.5,0.082 -5.04,0.16 -7.54,0.199 -2.54,0.043 -5.08,0.082 -7.58,0.122 -2.54,0 -5.04,0 -7.58,0 -7.46,0 -14.92,-0.079 -22.38,-0.282 -7.46,-0.187 -14.88,-0.468 -22.31,-0.816 -7.38,-0.391 -14.76,-0.82 -22.07,-1.402 -7.34,-0.551 -14.61,-1.18 -21.83,-1.918 -7.19,-0.704 -14.34,-1.563 -21.41,-2.461 -7.07,-0.903 -14.06,-1.911 -20.98,-3.012 -6.87,-1.047 -13.71,-2.219 -20.39,-3.469 -6.71,-1.25 -13.28,-2.578 -19.76,-4.031 -6.45,-1.399 -12.81,-2.891 -19.03,-4.449 -6.21,-1.598 -12.26,-3.239 -18.2,-4.961 -5.9,-1.719 -11.68,-3.52 -17.3,-5.387 -5.63,-1.844 -11.06,-3.793 -16.33,-5.781 -5.27,-2 -10.39,-4.071 -15.31,-6.211 -3.17,-1.371 -6.21,-2.82 -9.18,-4.219 -8.05,-26.371 -12.15,-53.75 -12.15,-81.289 0,-27.543 4.1,-54.922 12.15,-81.293 2.97,-1.449 6.01,-2.848 9.18,-4.219 4.92,-2.148 10.04,-4.218 15.31,-6.211 5.27,-1.988 10.7,-3.949 16.33,-5.777 5.62,-1.883 11.4,-3.672 17.3,-5.434 5.94,-1.718 11.99,-3.359 18.2,-4.918 6.22,-1.57 12.58,-3.05 19.03,-4.5 6.48,-1.398 13.05,-2.73 19.76,-3.98 6.68,-1.25 13.52,-2.418 20.39,-3.52 6.92,-1.089 13.91,-2.07 20.98,-2.96 7.07,-0.938 14.22,-1.758 21.41,-2.469 7.22,-0.742 14.49,-1.36 21.83,-1.949 7.31,-0.551 14.69,-1.012 22.07,-1.372 7.43,-0.351 14.85,-0.66 22.31,-0.82 7.46,-0.191 14.92,-0.308 22.38,-0.308 7.46,0 14.96,0.117 22.38,0.308 7.46,0.16 14.89,0.469 22.31,0.82 7.38,0.36 14.76,0.821 22.11,1.372 7.3,0.589 14.57,1.207 21.8,1.949 7.22,0.711 14.37,1.531 21.44,2.469 7.07,0.89 14.06,1.871 20.94,2.96 6.91,1.102 13.71,2.27 20.39,3.52 6.72,1.25 13.32,2.582 19.76,3.98 6.49,1.45 12.82,2.93 19.03,4.5 6.21,1.559 12.3,3.2 18.2,4.918 5.94,1.762 11.72,3.551 17.31,5.434 5.62,1.828 11.09,3.789 16.36,5.777 5.28,1.993 10.39,4.063 15.31,6.211 3.13,1.371 6.22,2.77 9.18,4.219 8.05,26.371 12.15,53.75 12.15,81.293 0,27.578 -4.1,55 -12.15,81.367 z"
         style="fill:none;stroke:#000000;stroke-width:17.5839;stroke-linecap:butt;stroke-linejoin:miter;stroke-miterlimit:4;stroke-dasharray:none;stroke-opacity:1"
         id="path156" /><path
         d="m 1943.28,882.461 c -122.58,0 -230.74,-80.16 -266.48,-197.379 2.97,1.438 6.01,2.848 9.18,4.258 4.92,2.109 10.04,4.18 15.31,6.172 5.27,1.988 10.7,3.937 16.33,5.82 5.62,1.828 11.4,3.629 17.3,5.348 5.94,1.761 11.99,3.402 18.2,4.961 6.22,1.558 12.58,3.089 19.03,4.488 6.48,1.41 13.05,2.742 19.76,3.992 6.68,1.25 13.52,2.418 20.39,3.508 6.92,1.062 13.91,2.07 20.98,2.973 7.07,0.937 14.22,1.757 21.41,2.5 7.22,0.699 14.49,1.367 21.83,1.918 7.31,0.539 14.69,1.011 22.07,1.359 7.43,0.391 14.85,0.672 22.31,0.859 7.46,0.16 14.92,0.282 22.38,0.282 2.54,0 5.04,-0.04 7.58,-0.04 2.5,-0.039 5.04,-0.082 7.58,-0.121 2.5,-0.039 5.04,-0.078 7.54,-0.16 2.54,-0.078 5.04,-0.148 7.57,-0.23 2.5,-0.078 5,-0.16 7.54,-0.27 2.5,-0.117 5,-0.238 7.5,-0.359 2.5,-0.11 5,-0.27 7.5,-0.43 2.5,-0.109 4.96,-0.269 7.46,-0.461 2.5,-0.16 4.97,-0.359 7.43,-0.551 2.5,-0.16 4.96,-0.386 7.42,-0.589 2.46,-0.188 4.92,-0.43 7.38,-0.661 2.42,-0.238 4.88,-0.468 7.31,-0.699 2.46,-0.277 4.88,-0.508 7.3,-0.789 2.42,-0.269 4.81,-0.539 7.23,-0.859 2.42,-0.27 4.8,-0.582 7.18,-0.891 2.39,-0.32 4.77,-0.629 7.11,-0.98 2.39,-0.309 4.73,-0.66 7.11,-1.02 2.35,-0.351 4.69,-0.699 7,-1.09 2.34,-0.351 4.64,-0.738 6.95,-1.129 2.3,-0.39 4.61,-0.781 6.87,-1.211 2.27,-0.39 4.54,-0.82 6.8,-1.25 2.27,-0.429 4.49,-0.859 6.76,-1.289 2.22,-0.472 4.41,-0.941 6.64,-1.41 2.19,-0.472 4.37,-0.941 6.56,-1.41 2.19,-0.5 4.34,-0.973 6.49,-1.48 2.14,-0.512 4.29,-1.02 6.4,-1.52 2.11,-0.512 4.22,-1.062 6.29,-1.601 2.11,-0.551 4.18,-1.098 6.21,-1.641 2.07,-0.547 4.1,-1.141 6.13,-1.68 2.04,-0.59 4.03,-1.179 6.02,-1.758 1.99,-0.589 3.95,-1.171 5.9,-1.8 1.95,-0.59 3.91,-1.211 5.82,-1.84 1.91,-0.621 3.83,-1.25 5.7,-1.871 1.88,-0.66 3.75,-1.289 5.59,-1.95 1.83,-0.671 3.67,-1.332 5.47,-2 1.79,-0.66 3.59,-1.32 5.35,-2.031 1.76,-0.66 3.51,-1.359 5.23,-2.07 1.72,-0.699 3.44,-1.399 5.12,-2.109 1.68,-0.7 3.36,-1.399 5,-2.149 1.64,-0.742 3.24,-1.441 4.84,-2.18 0.55,-0.281 1.1,-0.55 1.64,-0.781 -35.82,117.18 -143.98,197.262 -266.52,197.262 z"
         style="fill:none;stroke:#000000;stroke-width:17.5839;stroke-linecap:butt;stroke-linejoin:miter;stroke-miterlimit:4;stroke-dasharray:none;stroke-opacity:1"
         id="path158" /><path
         d="M 1943.28,603.789 V 882.461"
         style="fill:none;stroke:#000000;stroke-width:17.5839;stroke-linecap:butt;stroke-linejoin:miter;stroke-miterlimit:4;stroke-dasharray:none;stroke-opacity:1"
         id="path160" /><path
         d="M 1943.28,603.789 V 325.121"
         style="fill:none;stroke:#000000;stroke-width:17.5839;stroke-linecap:butt;stroke-linejoin:miter;stroke-miterlimit:4;stroke-dasharray:none;stroke-opacity:1"
         id="path162" /><path
         d="M 2221.95,603.789 H 1664.61"
         style="fill:none;stroke:#000000;stroke-width:17.5839;stroke-linecap:butt;stroke-linejoin:miter;stroke-miterlimit:4;stroke-dasharray:none;stroke-opacity:1"
         id="path164" /><path
         d="m 1972.38,603.789 c 0,-15.777 -13,-28.559 -29.1,-28.559 -16.05,0 -29.1,12.782 -29.1,28.559 0,15.781 13.05,28.551 29.1,28.551 16.1,0 29.1,-12.77 29.1,-28.551 z"
         style="fill:#000000;fill-opacity:1;fill-rule:nonzero;stroke:none"
         id="path166" /><path
         d="m 1972.38,603.789 c 0,-15.777 -13,-28.559 -29.1,-28.559 -16.05,0 -29.1,12.782 -29.1,28.559 0,15.781 13.05,28.551 29.1,28.551 16.1,0 29.1,-12.77 29.1,-28.551 z"
         style="fill:none;stroke:#000000;stroke-width:17.5839;stroke-linecap:butt;stroke-linejoin:miter;stroke-miterlimit:4;stroke-dasharray:none;stroke-opacity:1"
         id="path168" /><path
         d="m 1844.84,486.09 c 0,-21.25 -17.18,-38.43 -38.39,-38.43 -21.22,0 -38.44,17.18 -38.44,38.43 0,21.211 17.22,38.398 38.44,38.398 21.21,0 38.39,-17.187 38.39,-38.398 z"
         style="fill:#000000;fill-opacity:1;fill-rule:nonzero;stroke:none"
         id="path170" /><path
         d="m 1844.84,486.09 c 0,-21.25 -17.18,-38.43 -38.39,-38.43 -21.22,0 -38.44,17.18 -38.44,38.43 0,21.211 17.22,38.398 38.44,38.398 21.21,0 38.39,-17.187 38.39,-38.398 z"
         style="fill:none;stroke:#000000;stroke-width:17.5839;stroke-linecap:butt;stroke-linejoin:miter;stroke-miterlimit:4;stroke-dasharray:none;stroke-opacity:1"
         id="path172" /><path
         d="m 1834.65,718.281 c 0,-13.082 -10.63,-23.75 -23.75,-23.75 -13.09,0 -23.71,10.668 -23.71,23.75 0,13.129 10.62,23.75 23.71,23.75 13.12,0 23.75,-10.621 23.75,-23.75 z"
         style="fill:#000000;fill-opacity:1;fill-rule:nonzero;stroke:none"
         id="path174" /><path
         d="m 1834.65,718.281 c 0,-13.082 -10.63,-23.75 -23.75,-23.75 -13.09,0 -23.71,10.668 -23.71,23.75 0,13.129 10.62,23.75 23.71,23.75 13.12,0 23.75,-10.621 23.75,-23.75 z"
         style="fill:none;stroke:#000000;stroke-width:17.5839;stroke-linecap:butt;stroke-linejoin:miter;stroke-miterlimit:4;stroke-dasharray:none;stroke-opacity:1"
         id="path176" /><path
         d="m 2118.79,483.012 c 0,-19.571 -15.86,-35.473 -35.47,-35.473 -19.57,0 -35.47,15.902 -35.47,35.473 0,19.609 15.9,35.468 35.47,35.468 19.61,0 35.47,-15.859 35.47,-35.468 z"
         style="fill:#000000;fill-opacity:1;fill-rule:nonzero;stroke:none"
         id="path178" /><path
         d="m 2118.79,483.012 c 0,-19.571 -15.86,-35.473 -35.47,-35.473 -19.57,0 -35.47,15.902 -35.47,35.473 0,19.609 15.9,35.468 35.47,35.468 19.61,0 35.47,-15.859 35.47,-35.468 z"
         style="fill:none;stroke:#000000;stroke-width:17.5839;stroke-linecap:butt;stroke-linejoin:miter;stroke-miterlimit:4;stroke-dasharray:none;stroke-opacity:1"
         id="path180" /><path
         d="m 2094.06,603.789 c 0,-153.91 -67.5,-278.668 -150.78,-278.668 -83.24,0 -150.74,124.758 -150.74,278.668 0,153.91 67.5,278.672 150.74,278.672 83.28,0 150.78,-124.762 150.78,-278.672 z"
         style="fill:none;stroke:#000000;stroke-width:17.5839;stroke-linecap:butt;stroke-linejoin:miter;stroke-miterlimit:4;stroke-dasharray:none;stroke-opacity:1"
         id="path182" /><path
         d="m 2639.06,3277.34 h -61.95 v -37.42 h 61.95"
         style="fill:none;stroke:#000000;stroke-width:17.5839;stroke-linecap:butt;stroke-linejoin:miter;stroke-miterlimit:4;stroke-dasharray:none;stroke-opacity:1"
         id="path184" /><path
         d="m 2577.11,3239.92 h -38.05 v -377.11 h 100"
         style="fill:none;stroke:#000000;stroke-width:17.5839;stroke-linecap:butt;stroke-linejoin:miter;stroke-miterlimit:4;stroke-dasharray:none;stroke-opacity:1"
         id="path186" /><path
         d="m 2639.06,2750.23 h -155 l 55,112.58"
         style="fill:none;stroke:#000000;stroke-width:17.5839;stroke-linecap:butt;stroke-linejoin:miter;stroke-miterlimit:4;stroke-dasharray:none;stroke-opacity:1"
         id="path188" /><path
         d="m 2144.22,2922.65 h 373.121 v 242.152 H 2144.22 Z"
         style="fill:none;stroke:#000000;stroke-width:17.5839;stroke-linecap:butt;stroke-linejoin:miter;stroke-miterlimit:4;stroke-dasharray:none;stroke-opacity:1"
         id="path190" /><path
         d="M 2330.78,3164.8 V 2922.66"
         style="fill:none;stroke:#000000;stroke-width:17.5839;stroke-linecap:butt;stroke-linejoin:miter;stroke-miterlimit:4;stroke-dasharray:none;stroke-opacity:1"
         id="path192" /><path
         d="M 2424.06,3164.8 V 2922.66"
         style="fill:none;stroke:#000000;stroke-width:17.5839;stroke-linecap:butt;stroke-linejoin:miter;stroke-miterlimit:4;stroke-dasharray:none;stroke-opacity:1"
         id="path194" /><path
         d="M 2237.5,3164.8 V 2922.66"
         style="fill:none;stroke:#000000;stroke-width:17.5839;stroke-linecap:butt;stroke-linejoin:miter;stroke-miterlimit:4;stroke-dasharray:none;stroke-opacity:1"
         id="path196" /><path
         d="m 2144.22,3043.71 h 373.12"
         style="fill:none;stroke:#000000;stroke-width:17.5839;stroke-linecap:butt;stroke-linejoin:miter;stroke-miterlimit:4;stroke-dasharray:none;stroke-opacity:1"
         id="path198" /><path
         d="m 2639.06,3277.34 h 61.99 v -37.42 h -61.99"
         style="fill:none;stroke:#000000;stroke-width:17.5839;stroke-linecap:butt;stroke-linejoin:miter;stroke-miterlimit:4;stroke-dasharray:none;stroke-opacity:1"
         id="path200" /><path
         d="m 2701.05,3239.92 h 38.05 v -377.11 h -100.04"
         style="fill:none;stroke:#000000;stroke-width:17.5839;stroke-linecap:butt;stroke-linejoin:miter;stroke-miterlimit:4;stroke-dasharray:none;stroke-opacity:1"
         id="path202" /><path
         d="m 2639.06,2750.23 h 155.04 l -55,112.58"
         style="fill:none;stroke:#000000;stroke-width:17.5839;stroke-linecap:butt;stroke-linejoin:miter;stroke-miterlimit:4;stroke-dasharray:none;stroke-opacity:1"
         id="path204" /><path
         d="m 2760.82,2922.65 h 373.121 v 242.152 H 2760.82 Z"
         style="fill:none;stroke:#000000;stroke-width:17.5839;stroke-linecap:butt;stroke-linejoin:miter;stroke-miterlimit:4;stroke-dasharray:none;stroke-opacity:1"
         id="path206" /><path
         d="M 2947.38,3164.8 V 2922.66"
         style="fill:none;stroke:#000000;stroke-width:17.5839;stroke-linecap:butt;stroke-linejoin:miter;stroke-miterlimit:4;stroke-dasharray:none;stroke-opacity:1"
         id="path208" /><path
         d="M 2854.1,3164.8 V 2922.66"
         style="fill:none;stroke:#000000;stroke-width:17.5839;stroke-linecap:butt;stroke-linejoin:miter;stroke-miterlimit:4;stroke-dasharray:none;stroke-opacity:1"
         id="path210" /><path
         d="M 3040.66,3164.8 V 2922.66"
         style="fill:none;stroke:#000000;stroke-width:17.5839;stroke-linecap:butt;stroke-linejoin:miter;stroke-miterlimit:4;stroke-dasharray:none;stroke-opacity:1"
         id="path212" /><path
         d="M 3133.95,3043.71 H 2760.82"
         style="fill:none;stroke:#000000;stroke-width:17.5839;stroke-linecap:butt;stroke-linejoin:miter;stroke-miterlimit:4;stroke-dasharray:none;stroke-opacity:1"
         id="path214" /><path
         d="M 1908.59,2363.83 H 3369.57 V 3663.75 H 1908.59 Z"
         style="fill:none;stroke:#666666;stroke-width:22.0101;stroke-linecap:square;stroke-linejoin:round;stroke-miterlimit:4;stroke-dasharray:132.061, 132.061;stroke-dashoffset:0;stroke-opacity:1"
         id="path216" /><path
         d="m 2718.95,16.2891 h 2680.66 v 2026.52 H 2718.95 Z"
         style="fill:none;stroke:#666666;stroke-width:17.0079;stroke-linecap:square;stroke-linejoin:round;stroke-miterlimit:4;stroke-dasharray:102.047, 102.047;stroke-dashoffset:0;stroke-opacity:1"
         id="path218" /><path
         d="M 8.51953,12.4609 H 2559.2195 v 2030.35 H 8.51953 Z"
         style="fill:none;stroke:#666666;stroke-width:17.0079;stroke-linecap:square;stroke-linejoin:round;stroke-miterlimit:4;stroke-dasharray:102.047, 102.047;stroke-dashoffset:0;stroke-opacity:1"
         id="path220" /><text
         xml:space="preserve"
         style="font-style:normal;font-weight:normal;font-size:300px;line-height:1.25;font-family:sans-serif;fill:#000000;fill-opacity:1;stroke:none;stroke-width:7.5"
         x="534.43909"
         y="383.93219"
         id="text26364"
         transform="scale(1,-1)"><tspan
           sodipodi:role="line"
           id="tspan26362"
           style="stroke-width:7.5"
           x="534.43909"
           y="383.93219" /></text><text
         xml:space="preserve"
         style="font-style:normal;font-weight:normal;font-size:300px;line-height:1.25;font-family:sans-serif;fill:#000000;fill-opacity:1;stroke:none;stroke-width:7.5"
         x="248.82266"
         y="-228.927"
         id="text29404"
         transform="scale(1,-1)"><tspan
           sodipodi:role="line"
           id="tspan29402"
           style="font-style:normal;font-variant:normal;font-weight:normal;font-stretch:normal;font-size:200px;font-family:'CMU Serif';-inkscape-font-specification:'CMU Serif, Normal';font-variant-ligatures:normal;font-variant-caps:normal;font-variant-numeric:normal;font-variant-east-asian:normal;stroke-width:7.5"
           x="248.82266"
           y="-228.927">Ground segment</tspan></text><text
         xml:space="preserve"
         style="font-style:normal;font-weight:normal;font-size:300px;line-height:1.25;font-family:sans-serif;fill:#000000;fill-opacity:1;stroke:none;stroke-width:7.5"
         x="2002.9622"
         y="-3407.5603"
         id="text29404-2"
         transform="scale(1,-1)"><tspan
           sodipodi:role="line"
           id="tspan29402-4"
           style="font-style:normal;font-variant:normal;font-weight:normal;font-stretch:normal;font-size:200px;font-family:'CMU Serif';-inkscape-font-specification:'CMU Serif, Normal';font-variant-ligatures:normal;font-variant-caps:normal;font-variant-numeric:normal;font-variant-east-asian:normal;stroke-width:7.5"
           x="2002.9622"
           y="-3407.5603">Space segment</tspan></text><text
         xml:space="preserve"
         style="font-style:normal;font-weight:normal;font-size:300px;line-height:1.25;font-family:sans-serif;fill:#000000;fill-opacity:1;stroke:none;stroke-width:7.5"
         x="4141.2671"
         y="-228.632"
         id="text29404-4"
         transform="scale(1,-1)"><tspan
           sodipodi:role="line"
           id="tspan29402-3"
           style="font-style:normal;font-variant:normal;font-weight:normal;font-stretch:normal;font-size:200px;font-family:'CMU Serif';-inkscape-font-specification:'CMU Serif, Normal';font-variant-ligatures:normal;font-variant-caps:normal;font-variant-numeric:normal;font-variant-east-asian:normal;stroke-width:7.5"
           x="4141.2671"
           y="-228.632">User segment</tspan></text><text
         xml:space="preserve"
         style="font-style:normal;font-weight:normal;font-size:300px;line-height:1.25;font-family:sans-serif;fill:#000000;fill-opacity:1;stroke:none;stroke-width:7.5"
         x="1430.6881"
         y="-1478.7502"
         id="text29404-8"
         transform="scale(1,-1)"><tspan
           sodipodi:role="line"
           id="tspan29402-6"
           style="font-style:normal;font-variant:normal;font-weight:normal;font-stretch:normal;font-size:150px;font-family:'CMU Serif';-inkscape-font-specification:'CMU Serif, Normal';font-variant-ligatures:normal;font-variant-caps:normal;font-variant-numeric:normal;font-variant-east-asian:normal;stroke-width:7.5"
           x="1430.6881"
           y="-1478.7502">SNP / gateway</tspan></text><text
         xml:space="preserve"
         style="font-style:normal;font-weight:normal;font-size:300px;line-height:1.25;font-family:sans-serif;fill:#000000;fill-opacity:1;stroke:none;stroke-width:7.5"
         x="1346.0037"
         y="-911.04327"
         id="text29404-8-8"
         transform="scale(1,-1)"><tspan
           sodipodi:role="line"
           id="tspan29402-6-3"
           style="font-style:normal;font-variant:normal;font-weight:normal;font-stretch:normal;font-size:150px;font-family:'CMU Serif';-inkscape-font-specification:'CMU Serif, Normal';font-variant-ligatures:normal;font-variant-caps:normal;font-variant-numeric:normal;font-variant-east-asian:normal;stroke-width:7.5"
           x="1346.0037"
           y="-911.04327">Terrestial network</tspan></text><text
         xml:space="preserve"
         style="font-style:normal;font-weight:normal;font-size:300px;line-height:1.25;font-family:sans-serif;fill:#000000;fill-opacity:1;stroke:none;stroke-width:7.5"
         x="2370.7859"
         y="-2600.8667"
         id="text29404-8-3"
         transform="scale(1,-1)"><tspan
           sodipodi:role="line"
           id="tspan29402-6-1"
           style="font-style:normal;font-variant:normal;font-weight:normal;font-stretch:normal;font-size:150px;font-family:'CMU Serif';-inkscape-font-specification:'CMU Serif, Normal';font-variant-ligatures:normal;font-variant-caps:normal;font-variant-numeric:normal;font-variant-east-asian:normal;stroke-width:7.5"
           x="2370.7859"
           y="-2600.8667">Satellite</tspan></text><text
         xml:space="preserve"
         style="font-style:normal;font-weight:normal;font-size:300px;line-height:1.25;font-family:sans-serif;fill:#000000;fill-opacity:1;stroke:none;stroke-width:7.5"
         x="3169.8311"
         y="-149.9937"
         id="text29404-8-4"
         transform="scale(1,-1)"><tspan
           sodipodi:role="line"
           id="tspan29402-6-2"
           style="font-style:normal;font-variant:normal;font-weight:normal;font-stretch:normal;font-size:150px;font-family:'CMU Serif';-inkscape-font-specification:'CMU Serif, Normal';font-variant-ligatures:normal;font-variant-caps:normal;font-variant-numeric:normal;font-variant-east-asian:normal;stroke-width:7.5"
           x="3169.8311"
           y="-149.9937">Fixed user</tspan></text><text
         xml:space="preserve"
         style="font-style:normal;font-weight:normal;font-size:300px;line-height:1.25;font-family:sans-serif;fill:#000000;fill-opacity:1;stroke:none;stroke-width:7.5"
         x="4411.0713"
         y="-1068.2694"
         id="text29404-8-2"
         transform="scale(1,-1)"><tspan
           sodipodi:role="line"
           id="tspan29402-6-4"
           style="font-style:normal;font-variant:normal;font-weight:normal;font-stretch:normal;font-size:150px;font-family:'CMU Serif';-inkscape-font-specification:'CMU Serif, Normal';font-variant-ligatures:normal;font-variant-caps:normal;font-variant-numeric:normal;font-variant-east-asian:normal;stroke-width:7.5"
           x="4411.0713"
           y="-1068.2694">Mobile user</tspan></text></g></g></svg>
